<svg width="145" height="25" viewBox="0 0 145 25" fill="none" xmlns="http://www.w3.org/2000/svg">
<title>I am a test title for validation.</title>
<path d="M3.797 16.5425C4.161 16.9845 4.55533 17.2965 4.98 17.4785C5.41333 17.6605 5.88133 17.7515 6.384 17.7515C6.86933 17.7515 7.307 17.6605 7.697 17.4785C8.087 17.2965 8.41633 17.0192 8.685 16.6465C8.96233 16.2738 9.17467 15.8058 9.322 15.2425C9.46933 14.6705 9.543 13.9988 9.543 13.2275C9.543 12.4475 9.478 11.7888 9.348 11.2515C9.22667 10.7055 9.049 10.2635 8.815 9.92549C8.581 9.58749 8.295 9.34049 7.957 9.18449C7.62767 9.02849 7.25067 8.95049 6.826 8.95049C6.15867 8.95049 5.591 9.09349 5.123 9.37949C4.655 9.65682 4.213 10.0512 3.797 10.5625V16.5425ZM3.628 8.48249C4.174 7.86715 4.79367 7.36882 5.487 6.98749C6.18033 6.60615 6.995 6.41549 7.931 6.41549C8.659 6.41549 9.322 6.56715 9.92 6.87049C10.5267 7.17382 11.0467 7.61582 11.48 8.19649C11.922 8.76849 12.26 9.47915 12.494 10.3285C12.7367 11.1692 12.858 12.1355 12.858 13.2275C12.858 14.2242 12.7237 15.1472 12.455 15.9965C12.1863 16.8458 11.8007 17.5825 11.298 18.2065C10.804 18.8305 10.2017 19.3202 9.491 19.6755C8.789 20.0222 8.00033 20.1955 7.125 20.1955C6.37967 20.1955 5.74267 20.0828 5.214 19.8575C4.68533 19.6235 4.213 19.3028 3.797 18.8955V24.3555H0.586V6.66249H2.549C2.965 6.66249 3.238 6.85749 3.368 7.24749L3.628 8.48249ZM18.3923 8.97649C18.8083 8.17915 19.3023 7.55515 19.8743 7.10449C20.4463 6.64515 21.1223 6.41549 21.9023 6.41549C22.5177 6.41549 23.0117 6.54982 23.3843 6.81849L23.1763 9.22349C23.133 9.37949 23.068 9.49215 22.9813 9.56149C22.9033 9.62215 22.795 9.65249 22.6563 9.65249C22.5263 9.65249 22.3313 9.63082 22.0713 9.58749C21.82 9.54415 21.573 9.52249 21.3303 9.52249C20.975 9.52249 20.6587 9.57449 20.3813 9.67849C20.104 9.78249 19.8527 9.93415 19.6273 10.1335C19.4107 10.3242 19.2157 10.5582 19.0423 10.8355C18.8777 11.1128 18.7217 11.4292 18.5743 11.7845V20.0005H15.3633V6.66249H17.2483C17.5777 6.66249 17.8073 6.72315 17.9373 6.84449C18.0673 6.95715 18.154 7.16515 18.1973 7.46849L18.3923 8.97649ZM30.5837 6.45449C31.5717 6.45449 32.4687 6.61482 33.2747 6.93549C34.0894 7.25615 34.7827 7.71115 35.3547 8.30049C35.9354 8.88982 36.3817 9.60915 36.6937 10.4585C37.0057 11.3078 37.1617 12.2568 37.1617 13.3055C37.1617 14.3628 37.0057 15.3162 36.6937 16.1655C36.3817 17.0148 35.9354 17.7385 35.3547 18.3365C34.7827 18.9345 34.0894 19.3938 33.2747 19.7145C32.4687 20.0352 31.5717 20.1955 30.5837 20.1955C29.587 20.1955 28.6814 20.0352 27.8667 19.7145C27.052 19.3938 26.3544 18.9345 25.7737 18.3365C25.2017 17.7385 24.7554 17.0148 24.4347 16.1655C24.1227 15.3162 23.9667 14.3628 23.9667 13.3055C23.9667 12.2568 24.1227 11.3078 24.4347 10.4585C24.7554 9.60915 25.2017 8.88982 25.7737 8.30049C26.3544 7.71115 27.052 7.25615 27.8667 6.93549C28.6814 6.61482 29.587 6.45449 30.5837 6.45449ZM30.5837 17.7255C31.693 17.7255 32.512 17.3528 33.0407 16.6075C33.578 15.8622 33.8467 14.7702 33.8467 13.3315C33.8467 11.8928 33.578 10.7965 33.0407 10.0425C32.512 9.28849 31.693 8.91149 30.5837 8.91149C29.457 8.91149 28.6207 9.29282 28.0747 10.0555C27.5374 10.8095 27.2687 11.9015 27.2687 13.3315C27.2687 14.7615 27.5374 15.8535 28.0747 16.6075C28.6207 17.3528 29.457 17.7255 30.5837 17.7255ZM43.8035 20.2085C42.6422 20.2085 41.7495 19.8835 41.1255 19.2335C40.5102 18.5748 40.2025 17.6692 40.2025 16.5165V9.06749H38.8375C38.6642 9.06749 38.5168 9.01115 38.3955 8.89849C38.2742 8.78582 38.2135 8.61682 38.2135 8.39149V7.11749L40.3585 6.76649L41.0345 3.12649C41.0778 2.95315 41.1602 2.81882 41.2815 2.72349C41.4028 2.62815 41.5588 2.58049 41.7495 2.58049H43.4135V6.77949H46.9755V9.06749H43.4135V16.2955C43.4135 16.7115 43.5132 17.0365 43.7125 17.2705C43.9205 17.5045 44.2022 17.6215 44.5575 17.6215C44.7568 17.6215 44.9215 17.5998 45.0515 17.5565C45.1902 17.5045 45.3072 17.4525 45.4025 17.4005C45.5065 17.3485 45.5975 17.3008 45.6755 17.2575C45.7535 17.2055 45.8315 17.1795 45.9095 17.1795C46.0048 17.1795 46.0828 17.2055 46.1435 17.2575C46.2042 17.3008 46.2692 17.3702 46.3385 17.4655L47.3005 19.0255C46.8325 19.4155 46.2952 19.7102 45.6885 19.9095C45.0818 20.1088 44.4535 20.2085 43.8035 20.2085ZM52.3593 6.66249V20.0005H49.1353V6.66249H52.3593ZM52.8013 2.77549C52.8013 3.05282 52.745 3.31282 52.6323 3.55549C52.5196 3.79815 52.368 4.01049 52.1773 4.19249C51.9953 4.37449 51.7786 4.52182 51.5273 4.63449C51.276 4.73849 51.0073 4.79049 50.7213 4.79049C50.444 4.79049 50.1796 4.73849 49.9283 4.63449C49.6856 4.52182 49.4733 4.37449 49.2913 4.19249C49.1093 4.01049 48.962 3.79815 48.8493 3.55549C48.7453 3.31282 48.6933 3.05282 48.6933 2.77549C48.6933 2.48949 48.7453 2.22082 48.8493 1.96949C48.962 1.71815 49.1093 1.50149 49.2913 1.31949C49.4733 1.13749 49.6856 0.994488 49.9283 0.890488C50.1796 0.777821 50.444 0.721488 50.7213 0.721488C51.0073 0.721488 51.276 0.777821 51.5273 0.890488C51.7786 0.994488 51.9953 1.13749 52.1773 1.31949C52.368 1.50149 52.5196 1.71815 52.6323 1.96949C52.745 2.22082 52.8013 2.48949 52.8013 2.77549ZM67.6579 6.66249L62.3669 20.0005H59.4549L54.1639 6.66249H56.8159C57.0585 6.66249 57.2579 6.71882 57.4139 6.83149C57.5785 6.94415 57.6869 7.08715 57.7389 7.26049L60.3129 14.3845C60.4515 14.8005 60.5729 15.2078 60.6769 15.6065C60.7809 16.0052 60.8719 16.4038 60.9499 16.8025C61.0365 16.4038 61.1319 16.0052 61.2359 15.6065C61.3399 15.2078 61.4655 14.8005 61.6129 14.3845L64.2389 7.26049C64.2995 7.08715 64.4079 6.94415 64.5639 6.83149C64.7199 6.71882 64.9062 6.66249 65.1229 6.66249H67.6579ZM72.6972 6.66249V20.0005H69.4732V6.66249H72.6972ZM73.1392 2.77549C73.1392 3.05282 73.0829 3.31282 72.9702 3.55549C72.8575 3.79815 72.7059 4.01049 72.5152 4.19249C72.3332 4.37449 72.1165 4.52182 71.8652 4.63449C71.6139 4.73849 71.3452 4.79049 71.0592 4.79049C70.7819 4.79049 70.5175 4.73849 70.2662 4.63449C70.0235 4.52182 69.8112 4.37449 69.6292 4.19249C69.4472 4.01049 69.2999 3.79815 69.1872 3.55549C69.0832 3.31282 69.0312 3.05282 69.0312 2.77549C69.0312 2.48949 69.0832 2.22082 69.1872 1.96949C69.2999 1.71815 69.4472 1.50149 69.6292 1.31949C69.8112 1.13749 70.0235 0.994488 70.2662 0.890488C70.5175 0.777821 70.7819 0.721488 71.0592 0.721488C71.3452 0.721488 71.6139 0.777821 71.8652 0.890488C72.1165 0.994488 72.3332 1.13749 72.5152 1.31949C72.7059 1.50149 72.8575 1.71815 72.9702 1.96949C73.0829 2.22082 73.1392 2.48949 73.1392 2.77549ZM80.4168 20.2085C79.2554 20.2085 78.3628 19.8835 77.7388 19.2335C77.1234 18.5748 76.8158 17.6692 76.8158 16.5165V9.06749H75.4508C75.2774 9.06749 75.1301 9.01115 75.0088 8.89849C74.8874 8.78582 74.8268 8.61682 74.8268 8.39149V7.11749L76.9718 6.76649L77.6478 3.12649C77.6911 2.95315 77.7734 2.81882 77.8948 2.72349C78.0161 2.62815 78.1721 2.58049 78.3628 2.58049H80.0268V6.77949H83.5888V9.06749H80.0268V16.2955C80.0268 16.7115 80.1264 17.0365 80.3258 17.2705C80.5338 17.5045 80.8154 17.6215 81.1708 17.6215C81.3701 17.6215 81.5348 17.5998 81.6648 17.5565C81.8034 17.5045 81.9204 17.4525 82.0158 17.4005C82.1198 17.3485 82.2108 17.3008 82.2888 17.2575C82.3668 17.2055 82.4448 17.1795 82.5228 17.1795C82.6181 17.1795 82.6961 17.2055 82.7568 17.2575C82.8174 17.3008 82.8824 17.3702 82.9518 17.4655L83.9138 19.0255C83.4458 19.4155 82.9084 19.7102 82.3018 19.9095C81.6951 20.1088 81.0668 20.2085 80.4168 20.2085ZM88.9726 6.66249V20.0005H85.7486V6.66249H88.9726ZM89.4146 2.77549C89.4146 3.05282 89.3583 3.31282 89.2456 3.55549C89.1329 3.79815 88.9813 4.01049 88.7906 4.19249C88.6086 4.37449 88.3919 4.52182 88.1406 4.63449C87.8893 4.73849 87.6206 4.79049 87.3346 4.79049C87.0573 4.79049 86.7929 4.73849 86.5416 4.63449C86.2989 4.52182 86.0866 4.37449 85.9046 4.19249C85.7226 4.01049 85.5753 3.79815 85.4626 3.55549C85.3586 3.31282 85.3066 3.05282 85.3066 2.77549C85.3066 2.48949 85.3586 2.22082 85.4626 1.96949C85.5753 1.71815 85.7226 1.50149 85.9046 1.31949C86.0866 1.13749 86.2989 0.994488 86.5416 0.890488C86.7929 0.777821 87.0573 0.721488 87.3346 0.721488C87.6206 0.721488 87.8893 0.777821 88.1406 0.890488C88.3919 0.994488 88.6086 1.13749 88.7906 1.31949C88.9813 1.50149 89.1329 1.71815 89.2456 1.96949C89.3583 2.22082 89.4146 2.48949 89.4146 2.77549ZM91.7782 18.2325C91.7782 17.9638 91.8258 17.7082 91.9212 17.4655C92.0252 17.2228 92.1638 17.0148 92.3372 16.8415C92.5105 16.6682 92.7185 16.5295 92.9612 16.4255C93.2038 16.3215 93.4638 16.2695 93.7412 16.2695C94.0185 16.2695 94.2742 16.3215 94.5082 16.4255C94.7508 16.5295 94.9588 16.6682 95.1322 16.8415C95.3142 17.0148 95.4572 17.2228 95.5612 17.4655C95.6652 17.7082 95.7172 17.9638 95.7172 18.2325C95.7172 18.5098 95.6652 18.7698 95.5612 19.0125C95.4572 19.2465 95.3142 19.4502 95.1322 19.6235C94.9588 19.7968 94.7508 19.9312 94.5082 20.0265C94.2742 20.1305 94.0185 20.1825 93.7412 20.1825C93.4638 20.1825 93.2038 20.1305 92.9612 20.0265C92.7185 19.9312 92.5105 19.7968 92.3372 19.6235C92.1638 19.4502 92.0252 19.2465 91.9212 19.0125C91.8258 18.7698 91.7782 18.5098 91.7782 18.2325ZM107.971 9.48349C107.876 9.60482 107.78 9.70015 107.685 9.76949C107.598 9.83882 107.468 9.87349 107.295 9.87349C107.13 9.87349 106.97 9.82582 106.814 9.73049C106.658 9.62649 106.472 9.51382 106.255 9.39249C106.038 9.26249 105.778 9.14982 105.475 9.05449C105.18 8.95049 104.812 8.89849 104.37 8.89849C103.807 8.89849 103.313 9.00249 102.888 9.21049C102.463 9.40982 102.108 9.70015 101.822 10.0815C101.545 10.4628 101.337 10.9265 101.198 11.4725C101.059 12.0098 100.99 12.6208 100.99 13.3055C100.99 14.0162 101.064 14.6488 101.211 15.2035C101.367 15.7582 101.588 16.2262 101.874 16.6075C102.16 16.9802 102.507 17.2662 102.914 17.4655C103.321 17.6562 103.781 17.7515 104.292 17.7515C104.803 17.7515 105.215 17.6908 105.527 17.5695C105.848 17.4395 106.116 17.3008 106.333 17.1535C106.55 16.9975 106.736 16.8588 106.892 16.7375C107.057 16.6075 107.239 16.5425 107.438 16.5425C107.698 16.5425 107.893 16.6422 108.023 16.8415L108.946 18.0115C108.591 18.4275 108.205 18.7785 107.789 19.0645C107.373 19.3418 106.94 19.5672 106.489 19.7405C106.047 19.9052 105.588 20.0222 105.111 20.0915C104.643 20.1608 104.175 20.1955 103.707 20.1955C102.884 20.1955 102.108 20.0438 101.38 19.7405C100.652 19.4285 100.015 18.9778 99.4691 18.3885C98.9231 17.7992 98.4897 17.0798 98.1691 16.2305C97.8571 15.3725 97.7011 14.3975 97.7011 13.3055C97.7011 12.3262 97.8397 11.4205 98.1171 10.5885C98.4031 9.74782 98.8191 9.02415 99.3651 8.41749C99.9111 7.80215 100.587 7.32115 101.393 6.97449C102.199 6.62782 103.126 6.45449 104.175 6.45449C105.172 6.45449 106.043 6.61482 106.788 6.93549C107.542 7.25615 108.218 7.71549 108.816 8.31349L107.971 9.48349ZM116.633 6.45449C117.621 6.45449 118.518 6.61482 119.324 6.93549C120.138 7.25615 120.832 7.71115 121.404 8.30049C121.984 8.88982 122.431 9.60915 122.743 10.4585C123.055 11.3078 123.211 12.2568 123.211 13.3055C123.211 14.3628 123.055 15.3162 122.743 16.1655C122.431 17.0148 121.984 17.7385 121.404 18.3365C120.832 18.9345 120.138 19.3938 119.324 19.7145C118.518 20.0352 117.621 20.1955 116.633 20.1955C115.636 20.1955 114.73 20.0352 113.916 19.7145C113.101 19.3938 112.403 18.9345 111.823 18.3365C111.251 17.7385 110.804 17.0148 110.484 16.1655C110.172 15.3162 110.016 14.3628 110.016 13.3055C110.016 12.2568 110.172 11.3078 110.484 10.4585C110.804 9.60915 111.251 8.88982 111.823 8.30049C112.403 7.71115 113.101 7.25615 113.916 6.93549C114.73 6.61482 115.636 6.45449 116.633 6.45449ZM116.633 17.7255C117.742 17.7255 118.561 17.3528 119.09 16.6075C119.627 15.8622 119.896 14.7702 119.896 13.3315C119.896 11.8928 119.627 10.7965 119.09 10.0425C118.561 9.28849 117.742 8.91149 116.633 8.91149C115.506 8.91149 114.67 9.29282 114.124 10.0555C113.586 10.8095 113.318 11.9015 113.318 13.3315C113.318 14.7615 113.586 15.8535 114.124 16.6075C114.67 17.3528 115.506 17.7255 116.633 17.7255ZM125.66 20.0005V6.66249H127.623C128.039 6.66249 128.312 6.85749 128.442 7.24749L128.65 8.23549C128.884 7.97549 129.127 7.73715 129.378 7.52049C129.638 7.30382 129.911 7.11749 130.197 6.96149C130.492 6.80549 130.804 6.68415 131.133 6.59749C131.471 6.50215 131.84 6.45449 132.238 6.45449C133.079 6.45449 133.768 6.68415 134.305 7.14349C134.851 7.59415 135.259 8.19649 135.527 8.95049C135.735 8.50849 135.995 8.13149 136.307 7.81949C136.619 7.49882 136.962 7.23882 137.334 7.03949C137.707 6.84015 138.101 6.69282 138.517 6.59749C138.942 6.50215 139.367 6.45449 139.791 6.45449C140.528 6.45449 141.182 6.56715 141.754 6.79249C142.326 7.01782 142.807 7.34715 143.197 7.78049C143.587 8.21382 143.882 8.74249 144.081 9.36649C144.289 9.99049 144.393 10.7055 144.393 11.5115V20.0005H141.182V11.5115C141.182 10.6622 140.996 10.0252 140.623 9.60049C140.251 9.16715 139.705 8.95049 138.985 8.95049C138.656 8.95049 138.348 9.00682 138.062 9.11949C137.785 9.23215 137.538 9.39682 137.321 9.61349C137.113 9.82149 136.949 10.0858 136.827 10.4065C136.706 10.7272 136.645 11.0955 136.645 11.5115V20.0005H133.421V11.5115C133.421 10.6188 133.239 9.96882 132.875 9.56149C132.52 9.15415 131.996 8.95049 131.302 8.95049C130.834 8.95049 130.397 9.06749 129.989 9.30149C129.591 9.52682 129.218 9.83882 128.871 10.2375V20.0005H125.66Z" fill="#002140"/>
</svg>
